<svg xmlns="http://www.w3.org/2000/svg" width="300.89" height="315.137" viewBox="0 0 300.89 315.137">
  <g id="Group_14" data-name="Group 14" transform="translate(-412.909 -4.071) rotate(-31)">
    <g id="Group_13" data-name="Group 13" transform="translate(208.29 -233.65)">
      <rect id="Rectangle_46" data-name="Rectangle 46" width="29" height="95" transform="translate(55 652)" fill="#e2a3ea"/>
      <rect id="Rectangle_47" data-name="Rectangle 47" width="29" height="149" transform="translate(84 598)" fill="#e2a3ea"/>
      <rect id="Rectangle_48" data-name="Rectangle 48" width="29" height="186" transform="translate(113 561)" fill="#e2a3ea"/>
      <rect id="Rectangle_49" data-name="Rectangle 49" width="29" height="120" transform="translate(142 627)" fill="#e2a3ea"/>
      <rect id="Rectangle_50" data-name="Rectangle 50" width="29" height="219" transform="translate(171 528)" fill="#e2a3ea"/>
      <rect id="Rectangle_51" data-name="Rectangle 51" width="29" height="161" transform="translate(200 586)" fill="#e2a3ea"/>
      <rect id="Rectangle_52" data-name="Rectangle 52" width="29" height="120" transform="translate(229 627)" fill="#e2a3ea"/>
      <rect id="Rectangle_53" data-name="Rectangle 53" width="29" height="211" transform="translate(258 536)" fill="#e2a3ea"/>
      <rect id="Rectangle_54" data-name="Rectangle 54" width="29" height="87" transform="translate(287 660)" fill="#e2a3ea"/>
    </g>
    <g id="Group_12" data-name="Group 12" transform="translate(179 -234)">
      <rect id="Rectangle_46-2" data-name="Rectangle 46" width="29" height="95" transform="translate(55 652)" fill="#f7b7ff"/>
      <rect id="Rectangle_47-2" data-name="Rectangle 47" width="29" height="149" transform="translate(84 598)" fill="#f7b7ff"/>
      <rect id="Rectangle_48-2" data-name="Rectangle 48" width="29" height="186" transform="translate(113 561)" fill="#f7b7ff"/>
      <rect id="Rectangle_49-2" data-name="Rectangle 49" width="29" height="120" transform="translate(142 627)" fill="#f7b7ff"/>
      <rect id="Rectangle_50-2" data-name="Rectangle 50" width="29" height="219" transform="translate(171 528)" fill="#f7b7ff"/>
      <rect id="Rectangle_51-2" data-name="Rectangle 51" width="29" height="161" transform="translate(200 586)" fill="#f7b7ff"/>
      <rect id="Rectangle_52-2" data-name="Rectangle 52" width="29" height="120" transform="translate(229 627)" fill="#f7b7ff"/>
      <rect id="Rectangle_53-2" data-name="Rectangle 53" width="29" height="211" transform="translate(258 536)" fill="#f7b7ff"/>
      <rect id="Rectangle_54-2" data-name="Rectangle 54" width="29" height="87" transform="translate(287 660)" fill="#f7b7ff"/>
    </g>
  </g>
</svg>
