<svg xmlns="http://www.w3.org/2000/svg" width="46.36" height="52.846" viewBox="0 0 46.36 52.846"><g transform="translate(-15.458 -48.309)"><path d="M4.108.833,44.35,0a3.878,3.878,0,0,1,3.941,4.037,4.28,4.28,0,0,1-4.107,4.2L3.942,9.073A3.878,3.878,0,0,1,0,5.036,4.28,4.28,0,0,1,4.108.833Z" transform="translate(15.459 72.455) rotate(-30)" fill="#67f3ff"/><path d="M3.942,0,44.184.833a4.28,4.28,0,0,1,4.107,4.2A3.878,3.878,0,0,1,44.35,9.073L4.108,8.241A4.28,4.28,0,0,1,0,4.038,3.878,3.878,0,0,1,3.942,0Z" transform="translate(19.996 69.151) rotate(30)" fill="#67f3ff"/></g></svg>