<svg xmlns="http://www.w3.org/2000/svg" width="507.645" height="388" viewBox="0 0 507.645 388">
  <g id="Group_24" data-name="Group 24" transform="matrix(0.891, 0.454, -0.454, 0.891, -81.914, -515.186)">
    <rect id="Rectangle_2" data-name="Rectangle 2" width="12.464" height="183.842" transform="matrix(0.719, 0.695, -0.695, 0.719, 518.635, 363.046)" fill="#bcffc6"/>
    <ellipse id="Ellipse_2" data-name="Ellipse 2" cx="38.5" cy="39" rx="38.5" ry="39" transform="translate(370 440.258)" fill="#bcffc6"/>
    <rect id="Rectangle_1" data-name="Rectangle 1" width="12.464" height="183.842" transform="matrix(0.719, 0.695, -0.695, 0.719, 509.287, 359.93)" fill="#99f4a1"/>
    <rect id="Rectangle_11" data-name="Rectangle 11" width="12.464" height="183.842" transform="matrix(-0.695, 0.719, -0.719, -0.695, 523.484, 573.883)" fill="#fcb5b5"/>
    <rect id="Rectangle_12" data-name="Rectangle 12" width="12.464" height="183.842" transform="matrix(-0.695, 0.719, -0.719, -0.695, 526.6, 589.463)" fill="#f08181"/>
    <circle id="Ellipse_1" data-name="Ellipse 1" cx="39" cy="39" r="39" transform="translate(356 440.258)" fill="#99f4a1"/>
    <circle id="Ellipse_9" data-name="Ellipse 9" cx="39" cy="39" r="39" transform="translate(481 340.258)" fill="#bcffc6"/>
    <rect id="Rectangle_7" data-name="Rectangle 7" width="12.464" height="183.842" transform="matrix(0.017, 1, -1, 0.017, 723.086, 372.423)" fill="#bcffc6"/>
    <rect id="Rectangle_8" data-name="Rectangle 8" width="12.464" height="183.842" transform="matrix(0.017, 1, -1, 0.017, 718.68, 363.61)" fill="#99f4a1"/>
    <rect id="Rectangle_13" data-name="Rectangle 13" width="12.464" height="183.842" transform="matrix(-0.695, 0.719, -0.719, -0.695, 632.543, 489.752)" fill="#fcb5b5"/>
    <rect id="Rectangle_14" data-name="Rectangle 14" width="12.464" height="183.842" transform="matrix(-0.695, 0.719, -0.719, -0.695, 635.659, 505.332)" fill="#f08181"/>
    <circle id="Ellipse_10" data-name="Ellipse 10" cx="39" cy="39" r="39" transform="translate(467 340.258)" fill="#99f4a1"/>
    <ellipse id="Ellipse_11" data-name="Ellipse 11" cx="39" cy="38.5" rx="39" ry="38.5" transform="translate(481 540.258)" fill="#fcb5b5"/>
    <rect id="Rectangle_3" data-name="Rectangle 3" width="12.464" height="183.842" transform="matrix(0.719, 0.695, -0.695, 0.719, 621.462, 465.872)" fill="#fcb5b5"/>
    <rect id="Rectangle_4" data-name="Rectangle 4" width="12.464" height="183.842" transform="matrix(0.719, 0.695, -0.695, 0.719, 612.114, 462.757)" fill="#f08181"/>
    <ellipse id="Ellipse_12" data-name="Ellipse 12" cx="39" cy="38.5" rx="39" ry="38.5" transform="translate(467 540.258)" fill="#f08181"/>
    <ellipse id="Ellipse_13" data-name="Ellipse 13" cx="38.5" cy="39" rx="38.5" ry="39" transform="translate(589 440.258)" fill="#fcb5b5"/>
    <rect id="Rectangle_15" data-name="Rectangle 15" width="12.464" height="183.842" transform="matrix(-0.695, 0.719, -0.719, -0.695, 744.717, 586.347)" fill="#fcb5b5"/>
    <rect id="Rectangle_16" data-name="Rectangle 16" width="12.464" height="183.842" transform="matrix(-0.695, 0.719, -0.719, -0.695, 747.833, 601.927)" fill="#f08181"/>
    <circle id="Ellipse_14" data-name="Ellipse 14" cx="39" cy="39" r="39" transform="translate(575 440.258)" fill="#f08181"/>
    <circle id="Ellipse_21" data-name="Ellipse 21" cx="39" cy="39" r="39" transform="translate(700 340.258)" fill="#bcffc6"/>
    <rect id="Rectangle_17" data-name="Rectangle 17" width="12.464" height="183.842" transform="matrix(-0.695, 0.719, -0.719, -0.695, 860.008, 483.52)" fill="#bcffc6"/>
    <rect id="Rectangle_18" data-name="Rectangle 18" width="12.464" height="183.842" transform="matrix(-0.695, 0.719, -0.719, -0.695, 863.124, 499.1)" fill="#99f4a1"/>
    <rect id="Rectangle_9" data-name="Rectangle 9" width="12.464" height="183.842" transform="matrix(-1, 0.017, -0.017, -1, 729.108, 575.796)" fill="#fcb5b5"/>
    <rect id="Rectangle_10" data-name="Rectangle 10" width="12.464" height="183.842" transform="matrix(-1, 0.017, -0.017, -1, 737.922, 571.389)" fill="#f08181"/>
    <ellipse id="Ellipse_22" data-name="Ellipse 22" cx="38.5" cy="39" rx="38.5" ry="39" transform="translate(684 340.258)" fill="#99f4a1"/>
    <ellipse id="Ellipse_23" data-name="Ellipse 23" cx="39" cy="38.5" rx="39" ry="38.5" transform="translate(700 540.258)" fill="#fcb5b5"/>
    <rect id="Rectangle_5" data-name="Rectangle 5" width="12.464" height="183.842" transform="matrix(0.719, 0.695, -0.695, 0.719, 839.58, 465.872)" fill="#fcb5b5"/>
    <rect id="Rectangle_6" data-name="Rectangle 6" width="12.464" height="183.842" transform="matrix(0.719, 0.695, -0.695, 0.719, 830.232, 462.757)" fill="#f08181"/>
    <circle id="Ellipse_24" data-name="Ellipse 24" cx="38.5" cy="38.5" r="38.5" transform="translate(684 540.258)" fill="#f08181"/>
    <circle id="Ellipse_25" data-name="Ellipse 25" cx="39" cy="39" r="39" transform="translate(808 440.258)" fill="#bcffc6"/>
    <circle id="Ellipse_26" data-name="Ellipse 26" cx="39" cy="39" r="39" transform="translate(791 440.258)" fill="#99f4a1"/>
  </g>
</svg>
